<?xml version="1.0" encoding="UTF-8"?>
<!DOCTYPE svg PUBLIC "-//W3C//DTD SVG 1.1//EN" "http://www.w3.org/Graphics/SVG/1.1/DTD/svg11.dtd">
<!-- Creator: CorelDRAW -->
<svg xmlns="http://www.w3.org/2000/svg" xml:space="preserve" width="720px" height="200px" version="1.1" style="shape-rendering:geometricPrecision; text-rendering:geometricPrecision; image-rendering:optimizeQuality; fill-rule:evenodd; clip-rule:evenodd"
viewBox="0 0 720 200"
 xmlns:xlink="http://www.w3.org/1999/xlink"
 xmlns:xodm="http://www.corel.com/coreldraw/odm/2003">
 <defs>
  <style type="text/css">
   <![CDATA[
    .fil5 {fill:#00FFFB;fill-rule:nonzero}
    .fil4 {fill:#00FFFB;fill-rule:nonzero}
    .fil1 {fill:#958B8B;fill-rule:nonzero}
    .fil6 {fill:#AAFFBB;fill-rule:nonzero}
    .fil3 {fill:#EED1F6;fill-rule:nonzero}
    .fil2 {fill:#FFF500;fill-rule:nonzero}
    .fil0 {fill:#036299;fill-rule:nonzero}
   ]]>
  </style>
 </defs>
 <g id="Layer_x0020_1">
  <metadata id="CorelCorpID_0Corel-Layer"/>
  <g id="_2607453984784">
   <path id="path3298" class="fil0" d="M277.52 1.46c-70.6,0.2 -141.23,-0.66 -211.82,1.18 -35.96,3.72 -64.77,38.32 -64.24,74.31 0.11,14.54 0.15,29.08 -0.05,43.62 0.46,20.83 7.58,42.26 23.29,56.45 14.92,14.43 35.85,22.31 56.6,21 18.98,1.39 38.02,-0.29 57.02,0.19 165.17,-0.3 330.35,0.51 495.51,-0.92 11.53,-0.36 23.45,0.89 34.4,-3.5 31.48,-10.99 53.59,-44.72 49.97,-78.22 -0.4,-23 3.07,-47.29 -6.11,-69.07 -11.67,-27.06 -40.32,-46 -69.86,-44.83 -22.97,-0.32 -45.95,0.36 -68.92,-0.13 -98.6,-0.18 -197.19,-0.12 -295.79,-0.08l0 0z"/>
   <path class="fil1" d="M277.51 2.87c-20,0.06 -40,0.04 -60,0.01 -50.57,-0.07 -101.13,-0.14 -151.7,1.18 -17.44,1.81 -33.17,11.05 -44.54,24.21 -11.6,13.41 -18.66,30.87 -18.4,48.66l0 0.01c0.05,7.28 0.09,14.55 0.09,21.82 0,7.27 -0.04,14.54 -0.14,21.8 0.24,10.73 2.27,21.62 6.38,31.56 3.71,9.01 9.13,17.23 16.44,23.84l0.08 0.08c7.34,7.08 16.15,12.55 25.68,16.08 9.48,3.52 19.67,5.12 29.81,4.48 0.07,0 0.13,0 0.19,0 11.09,0.81 22.17,0.57 33.26,0.34 7.89,-0.18 15.79,-0.35 23.69,-0.14 54.96,-0.1 109.92,-0.08 164.87,-0.06 110.19,0.04 220.38,0.08 330.57,-0.87 2.56,-0.08 5.17,-0.08 7.77,-0.08 8.92,0 17.88,0 26.15,-3.31l0.06 -0.02c15.52,-5.42 28.73,-16.5 37.57,-30.34 8.74,-13.69 13.22,-30.08 11.45,-46.4 0,-0.06 -0.01,-0.13 0,-0.2 -0.09,-5.37 0.02,-10.8 0.14,-16.26 0.39,-17.78 0.78,-35.79 -6.14,-52.21l-0.01 -0.02c-5.76,-13.35 -15.75,-24.68 -27.94,-32.5 -12.02,-7.72 -26.18,-12.01 -40.56,-11.44l-0.12 0c-10.62,-0.15 -21.23,-0.09 -31.85,-0.02 -12.34,0.07 -24.69,0.15 -37.03,-0.11 -87.97,-0.17 -175.94,-0.13 -263.9,-0.1l-31.87 0.01zm-60 -2.83c19.96,0.03 39.93,0.06 59.89,0 0.08,-0.01 0.16,-0.01 0.25,0l31.73 -0.01c87.97,-0.04 175.94,-0.07 263.91,0.09l0.05 0c12.32,0.26 24.64,0.19 36.96,0.12 10.63,-0.07 21.27,-0.13 31.89,0.02 14.96,-0.59 29.68,3.87 42.17,11.88 12.65,8.11 23.01,19.88 29,33.75l0.03 0.06c7.15,16.97 6.76,35.29 6.36,53.37 -0.11,5.43 -0.23,10.83 -0.14,16.15 1.82,16.96 -2.82,33.98 -11.89,48.18 -9.17,14.36 -22.89,25.85 -39.02,31.48 -8.76,3.49 -17.97,3.49 -27.14,3.5 -2.56,0 -5.13,0 -7.69,0.08l-0.03 0c-110.2,0.95 -220.41,0.91 -330.62,0.86 -54.95,-0.02 -109.91,-0.04 -164.86,0.06l-0.07 0c-7.85,-0.2 -15.71,-0.03 -23.58,0.14 -11.15,0.24 -22.31,0.48 -33.42,-0.32 -10.51,0.64 -21.05,-1.02 -30.87,-4.66 -9.88,-3.67 -19.03,-9.35 -26.65,-16.7l-0.02 -0.01c-7.64,-6.91 -13.29,-15.49 -17.17,-24.87 -4.23,-10.27 -6.34,-21.53 -6.58,-32.61l0 -0.04c0.1,-7.27 0.14,-14.54 0.14,-21.8 0,-7.26 -0.04,-14.52 -0.09,-21.79l0 0c-0.27,-18.51 7.06,-36.65 19.08,-50.56 11.84,-13.68 28.23,-23.3 46.43,-25.18l0.11 0c50.59,-1.32 101.21,-1.25 151.84,-1.19z"/>
   <path id="path2519" class="fil2" d="M360 16.12c-286.02,0 -288.78,0.01 -294.88,1.26 -24.23,4.96 -42.27,23.1 -47.21,47.44 -1.14,5.64 -1.26,8.69 -1.26,34.44 0,25.63 0.12,28.82 1.24,34.35 4.97,24.42 22.74,42.37 47.05,47.52 5.72,1.21 10.5,1.98 13.03,1.33 1.88,-0.49 2.25,-1.98 2.25,-3.48 0,-2.4 -1.81,-3.34 -7.21,-3.78 -15.8,-1.27 -30.37,-9.34 -39.15,-21.67 -4.06,-5.72 -7.72,-14.05 -9.08,-20.69 -1.06,-5.13 -1.2,-8.8 -1.2,-33.03 -0.01,-30.66 0.39,-34.88 4.07,-43.43 2.95,-6.87 5.7,-11.27 10.01,-16.02 7.16,-7.88 17.83,-13.93 28.42,-16.1 5.72,-1.18 12.93,-1.19 295.93,-1.03 280.74,0.16 290.17,0.21 294.13,1.35 5.13,1.47 13.43,5.3 17.41,8.04 7.59,5.21 13.62,12.53 17.76,21.53 4.71,10.23 4.8,10.95 4.8,45.11 0,34.15 -0.09,34.87 -4.8,45.1 -6.79,14.76 -18.81,24.88 -35.17,29.58 -2.71,0.78 -8.03,1.05 -98.3,1.24 -41.58,0.09 -101.2,0.16 -186.88,0.26 -139.25,0.16 -211.37,0.1 -247.4,0.21 -11.48,0.14 -23.19,0.06 -36.67,0.3 -1.91,0 -3.46,1.56 -3.46,3.48 0,1.92 1.55,3.48 3.46,3.48 92.89,-0.43 189.17,-0.34 282.39,-0.51 275.63,0 279.51,-0.02 285.5,-1.25 24.44,-5.01 42.34,-22.99 47.33,-47.53 1.12,-5.54 1.23,-8.73 1.23,-34.36 0,-25.63 -0.11,-28.82 -1.23,-34.36 -4.99,-24.55 -22.89,-42.52 -47.33,-47.54 -5.99,-1.23 -9.92,-1.24 -294.78,-1.24l0 0z"/>
   <path class="fil3" d="M360 16.69c-143.38,0 -215.74,0 -252.4,0.16 -37.15,0.16 -39.35,0.47 -42.37,1.09 -12,2.46 -22.47,8.17 -30.55,16.29 -8.08,8.12 -13.77,18.64 -16.21,30.7 -0.57,2.79 -0.88,4.95 -1.05,9.59 -0.17,4.63 -0.2,11.84 -0.2,24.74 0,12.84 0.03,20.05 0.19,24.69 0.17,4.65 0.48,6.81 1.04,9.55 2.45,12.1 8.08,22.59 16.11,30.7 8.02,8.1 18.45,13.82 30.5,16.37 2.84,0.61 5.44,1.1 7.65,1.36 2.17,0.25 3.93,0.29 5.12,-0.02 0.76,-0.2 1.21,-0.59 1.47,-1.08 0.28,-0.52 0.35,-1.18 0.35,-1.85 0,-0.97 -0.36,-1.65 -1.27,-2.12 -1.06,-0.55 -2.79,-0.88 -5.42,-1.09 -7.97,-0.64 -15.64,-3 -22.43,-6.76 -6.78,-3.76 -12.69,-8.91 -17.13,-15.15 -2.05,-2.89 -4,-6.43 -5.61,-10.09 -1.61,-3.66 -2.87,-7.45 -3.56,-10.82 -0.54,-2.59 -0.84,-4.81 -1.01,-9.44 -0.17,-4.59 -0.21,-11.57 -0.21,-23.7 0,-15.35 0.1,-24.08 0.66,-30.06 0.57,-6.03 1.6,-9.27 3.46,-13.59 1.48,-3.46 2.92,-6.3 4.54,-8.89 1.61,-2.58 3.4,-4.9 5.57,-7.29 3.62,-3.98 8.13,-7.51 13.07,-10.3 4.94,-2.8 10.31,-4.88 15.66,-5.98 2.89,-0.59 6.15,-0.89 44.1,-1.02 37.89,-0.13 110.44,-0.1 251.93,-0.02 140.38,0.08 212.92,0.13 250.87,0.31 38.02,0.17 41.4,0.47 43.42,1.06 2.59,0.74 5.99,2.09 9.23,3.58 3.24,1.5 6.34,3.16 8.34,4.54 3.84,2.64 7.29,5.8 10.29,9.45 3.01,3.64 5.58,7.77 7.67,12.31 2.38,5.17 3.6,7.94 4.22,13.76 0.61,5.77 0.63,14.5 0.63,31.59 0,17.09 -0.02,25.81 -0.63,31.58 -0.62,5.82 -1.84,8.59 -4.22,13.76 -3.43,7.46 -8.19,13.74 -14.15,18.76 -5.96,5.01 -13.13,8.75 -21.38,11.12 -1.39,0.41 -3.43,0.67 -16.46,0.86 -12.95,0.19 -36.85,0.31 -81.99,0.41 -20.79,0.04 -46.09,0.08 -76.9,0.12 -30.82,0.05 -67.14,0.09 -109.99,0.14 -70.59,0.08 -123.94,0.1 -164.07,0.12 -39.02,0.02 -65.55,0.03 -83.32,0.08 -4.73,0.06 -9.52,0.08 -14.45,0.1 -7,0.03 -14.3,0.07 -22.21,0.21l-0.01 0c-0.8,0 -1.52,0.33 -2.05,0.85 -0.52,0.53 -0.84,1.26 -0.84,2.06 0,0.8 0.32,1.53 0.84,2.06 0.53,0.53 1.25,0.85 2.05,0.85l0.05 0.01c61.38,-0.29 124.24,-0.34 186.72,-0.4 32.06,-0.03 64.02,-0.06 95.62,-0.12 138.18,0 208.22,-0.01 243.86,-0.16 36.11,-0.16 38.57,-0.47 41.53,-1.07 12.11,-2.49 22.59,-8.18 30.67,-16.29 8.07,-8.11 13.74,-18.65 16.22,-30.81 0.55,-2.74 0.86,-4.9 1.02,-9.55 0.17,-4.63 0.2,-11.85 0.2,-24.69 0,-12.85 -0.03,-20.06 -0.2,-24.7 -0.16,-4.65 -0.47,-6.81 -1.02,-9.55 -2.48,-12.16 -8.14,-22.69 -16.22,-30.8 -8.07,-8.11 -18.56,-13.81 -30.67,-16.29 -2.96,-0.61 -5.43,-0.92 -42.71,-1.08 -36.79,-0.15 -109.16,-0.15 -251.96,-0.15zm-252.41 -0.98c37.75,-0.16 109.77,-0.16 252.41,-0.16 142.05,0 214.08,0 251.97,0.16 37.39,0.16 39.89,0.48 42.93,1.1 12.33,2.53 23.01,8.33 31.24,16.59 8.23,8.27 14,19 16.52,31.38 0.57,2.81 0.88,5.01 1.05,9.74 0.17,4.75 0.2,11.95 0.2,24.74 0,12.78 -0.03,19.98 -0.2,24.73 -0.17,4.74 -0.48,6.94 -1.05,9.74 -2.52,12.39 -8.29,23.12 -16.52,31.38 -8.23,8.27 -18.91,14.07 -31.24,16.6 -3.04,0.62 -5.53,0.93 -41.75,1.09 -36.71,0.16 -106.42,0.17 -243.87,0.17 -31.6,0.05 -63.56,0.08 -95.62,0.11 -62.47,0.06 -125.33,0.12 -186.72,0.4l-0.05 0c-1.11,0 -2.12,-0.45 -2.85,-1.19 -0.73,-0.73 -1.18,-1.74 -1.18,-2.86 0,-1.12 0.45,-2.13 1.18,-2.86 0.73,-0.73 1.74,-1.19 2.85,-1.19 7.91,-0.14 15.21,-0.17 22.22,-0.2 4.92,-0.02 9.7,-0.04 14.44,-0.1l0.01 0c17.76,-0.05 44.29,-0.07 83.32,-0.08 40.13,-0.02 93.48,-0.05 164.07,-0.13 42.85,-0.04 79.17,-0.09 109.99,-0.13 30.81,-0.04 56.11,-0.08 76.9,-0.13 45.13,-0.09 69.03,-0.21 81.98,-0.4 12.87,-0.19 14.85,-0.44 16.16,-0.82 8.1,-2.33 15.13,-5.99 20.96,-10.9 5.84,-4.91 10.5,-11.06 13.86,-18.37 2.33,-5.06 3.51,-7.76 4.11,-13.4 0.61,-5.68 0.63,-14.4 0.63,-31.46 0,-17.07 -0.02,-25.78 -0.63,-31.47 -0.6,-5.63 -1.78,-8.34 -4.11,-13.4 -2.05,-4.46 -4.57,-8.5 -7.52,-12.07 -2.94,-3.56 -6.31,-6.66 -10.05,-9.23 -1.96,-1.35 -5,-2.98 -8.18,-4.44 -3.19,-1.48 -6.52,-2.79 -9.07,-3.53 -1.93,-0.56 -5.25,-0.85 -43.12,-1.02 -37.94,-0.17 -110.49,-0.23 -250.86,-0.3 -141.49,-0.08 -214.04,-0.12 -251.93,0.01 -37.84,0.13 -41.05,0.43 -43.88,1 -5.24,1.08 -10.49,3.11 -15.33,5.85 -4.83,2.74 -9.24,6.18 -12.78,10.08 -2.14,2.35 -3.88,4.62 -5.46,7.14 -1.57,2.52 -2.99,5.31 -4.45,8.73 -1.82,4.22 -2.82,7.37 -3.38,13.25 -0.56,5.94 -0.66,14.64 -0.65,29.95 0,12.1 0.04,19.07 0.21,23.66 0.16,4.55 0.46,6.72 0.98,9.26 0.67,3.28 1.92,6.98 3.5,10.58 1.58,3.59 3.49,7.07 5.5,9.89 4.33,6.09 10.11,11.14 16.75,14.82 6.64,3.68 14.16,5.99 21.97,6.62 2.78,0.22 4.65,0.58 5.85,1.21 1.35,0.7 1.89,1.7 1.89,3.13 0,0.83 -0.11,1.66 -0.49,2.38 -0.4,0.76 -1.07,1.36 -2.19,1.65 -1.34,0.34 -3.24,0.32 -5.52,0.05 -2.24,-0.26 -4.89,-0.76 -7.76,-1.37 -12.27,-2.6 -22.89,-8.43 -31.07,-16.69 -8.18,-8.26 -13.92,-18.95 -16.42,-31.27 -0.57,-2.8 -0.88,-5 -1.05,-9.74 -0.17,-4.75 -0.2,-11.95 -0.2,-24.73 0,-12.84 0.03,-20.04 0.2,-24.78 0.17,-4.73 0.49,-6.92 1.07,-9.77 2.49,-12.29 8.29,-23.01 16.52,-31.28 8.23,-8.27 18.9,-14.1 31.12,-16.6 3.09,-0.64 5.33,-0.96 42.59,-1.12z"/>
   <path id="path2223" class="fil4" d="M360 16.6c-286.02,0 -288.78,0.02 -294.88,1.27 -24.23,4.96 -42.27,23.1 -47.21,47.44 -1.14,5.64 -1.26,8.69 -1.26,34.43 0,25.63 0.12,28.82 1.24,34.36 4.97,24.42 22.74,42.37 47.05,47.52 9.98,2.11 15.28,1.37 15.28,-2.16 0,-2.39 -1.81,-3.34 -7.21,-3.77 -15.8,-1.27 -30.37,-9.34 -39.15,-21.67 -4.06,-5.72 -7.72,-14.06 -9.08,-20.69 -1.06,-5.13 -1.2,-8.81 -1.2,-33.04 -0.01,-30.65 0.39,-34.87 4.07,-43.42 2.95,-6.87 5.7,-11.28 10.01,-16.02 7.16,-7.89 17.83,-13.93 28.42,-16.11 5.72,-1.17 12.93,-1.18 295.93,-1.02 280.74,0.15 290.17,0.2 294.13,1.34 5.13,1.48 13.43,5.31 17.41,8.04 7.59,5.22 13.62,12.54 17.76,21.54 4.71,10.23 4.8,10.95 4.8,45.1 0,34.16 -0.09,34.88 -4.8,45.11 -6.79,14.75 -18.81,24.87 -35.17,29.57 -2.71,0.78 -8.03,1.05 -98.3,1.25 -41.58,0.09 -101.2,0.16 -186.88,0.26 -139.25,0.15 -211.37,0.09 -247.4,0.2 -11.48,0.14 -23.19,0.06 -36.67,0.31 -1.91,0 -3.46,1.56 -3.46,3.48 0,1.91 1.55,3.47 3.46,3.47 92.89,-0.42 189.17,-0.34 282.39,-0.51 275.63,0 279.51,-0.01 285.5,-1.24 24.44,-5.02 42.34,-22.99 47.33,-47.54 1.12,-5.54 1.23,-8.73 1.23,-34.36 0,-25.63 -0.11,-28.82 -1.23,-34.36 -4.99,-24.54 -22.89,-42.52 -47.33,-47.53 -5.99,-1.23 -9.92,-1.25 -294.78,-1.25l0 0z" filter="url(#filter3203)"/>
   <path class="fil5" d="M360 20.02c-145.07,0 -218.21,0 -252.39,0.15 -36.87,0.16 -38.97,0.45 -41.82,1.03 -11.44,2.35 -21.42,7.79 -29.1,15.52 -7.7,7.73 -13.13,17.76 -15.46,29.27 -0.53,2.63 -0.83,4.68 -0.99,9.12 -0.16,4.37 -0.19,11.6 -0.19,24.63 0,12.98 0.03,20.22 0.19,24.6 0.16,4.44 0.45,6.49 0.97,9.08 2.35,11.54 7.71,21.54 15.35,29.26 7.64,7.72 17.58,13.17 29.07,15.6 3.46,0.73 6.29,1.1 8.47,1.1 0.37,0 0.7,-0.01 1.01,-0.03 -0.65,-0.1 -1.44,-0.18 -2.37,-0.26 -8.38,-0.68 -16.44,-3.16 -23.57,-7.1 -7.15,-3.96 -13.38,-9.41 -18.07,-16 -2.17,-3.05 -4.22,-6.77 -5.9,-10.59 -1.67,-3.82 -3.01,-7.81 -3.74,-11.39 -0.57,-2.75 -0.89,-5.09 -1.06,-9.92 -0.17,-4.59 -0.21,-11.6 -0.21,-23.8 -0.01,-15.44 0.1,-24.24 0.67,-30.32 0.6,-6.43 1.7,-9.86 3.67,-14.45 1.53,-3.57 3.04,-6.54 4.75,-9.27 1.71,-2.75 3.59,-5.19 5.87,-7.7 3.81,-4.19 8.56,-7.91 13.78,-10.86 5.19,-2.94 10.84,-5.12 16.47,-6.28 3.08,-0.63 6.43,-0.95 44.67,-1.08 37.89,-0.13 110.44,-0.09 251.93,-0.01 140.38,0.08 212.93,0.13 250.88,0.3 30.51,0.14 39.01,0.38 42.34,0.8 -0.37,-0.08 -0.74,-0.16 -1.11,-0.24l-0.12 -0.03c-2.74,-0.55 -5.6,-0.83 -42.04,-0.98 -34.25,-0.15 -107.41,-0.15 -251.95,-0.15zm-252.42 -6.65c40.23,-0.18 111.48,-0.18 252.42,-0.18 140.32,0 211.55,0 251.98,0.18 37.2,0.15 40.19,0.48 43.35,1.12l0.13 0.02c12.9,2.65 24.07,8.72 32.68,17.37 8.61,8.64 14.65,19.87 17.29,32.83 0.6,2.95 0.93,5.26 1.1,10.2 0.18,5.01 0.21,12.18 0.21,24.83 0,12.65 -0.03,19.83 -0.21,24.84 -0.17,4.93 -0.5,7.25 -1.1,10.2 -2.64,12.96 -8.68,24.18 -17.29,32.83 -8.61,8.65 -19.78,14.71 -32.68,17.36 -3.21,0.66 -5.79,0.99 -42.3,1.15 -39.21,0.17 -108.11,0.17 -243.88,0.17l0 -0.01c-31.62,0.06 -63.6,0.09 -95.67,0.12 -62.37,0.06 -125.12,0.11 -186.4,0.39 -0.11,0.01 -0.21,0.02 -0.32,0.02 -1.89,0 -3.61,-0.77 -4.85,-2.02 -0.2,-0.2 -0.38,-0.41 -0.56,-0.63 -0.5,0.42 -1.09,0.78 -1.76,1.08 -1.46,0.64 -3.34,0.96 -5.62,0.96 -2.59,0 -5.89,-0.41 -9.85,-1.25 -12.82,-2.72 -23.93,-8.82 -32.49,-17.47 -8.57,-8.64 -14.57,-19.83 -17.18,-32.7 -0.61,-2.95 -0.94,-5.27 -1.12,-10.21 -0.18,-5 -0.21,-12.18 -0.21,-24.83 0,-12.7 0.03,-19.87 0.22,-24.87 0.18,-4.93 0.51,-7.24 1.12,-10.24 2.61,-12.84 8.67,-24.06 17.29,-32.72 8.62,-8.66 19.78,-14.76 32.56,-17.38 3.27,-0.66 5.6,-1 43.14,-1.16zm-27.37 160.44c0.72,0.38 1.31,0.8 1.79,1.28l0.04 -0.04c1.24,-1.25 2.96,-2.03 4.85,-2.03l0 0.02c7.91,-0.15 15.25,-0.18 22.29,-0.21 4.88,-0.02 9.61,-0.04 14.34,-0.1l0.04 0c18.11,-0.05 45.33,-0.07 85.61,-0.09 39.87,-0.01 92.52,-0.04 161.78,-0.12 42.85,-0.05 79.17,-0.09 109.99,-0.13 30.81,-0.04 56.11,-0.08 76.9,-0.12 45.1,-0.1 68.99,-0.21 81.94,-0.4 12.5,-0.19 14.32,-0.41 15.43,-0.72 7.71,-2.22 14.39,-5.7 19.92,-10.35 5.52,-4.64 9.92,-10.47 13.1,-17.38 2.2,-4.78 3.32,-7.33 3.87,-12.51 0.59,-5.49 0.61,-14.16 0.61,-31.17 0,-17 -0.02,-25.68 -0.61,-31.16 -0.55,-5.18 -1.67,-7.74 -3.87,-12.52 -1.94,-4.22 -4.33,-8.05 -7.13,-11.44 -2.77,-3.37 -5.94,-6.28 -9.47,-8.71 -1.84,-1.27 -4.73,-2.81 -7.76,-4.21 -3.04,-1.4 -6.22,-2.66 -8.66,-3.36 -1.71,-0.49 -4.89,-0.75 -42.36,-0.92 -37.95,-0.17 -110.49,-0.22 -250.85,-0.3 -141.49,-0.08 -214.04,-0.12 -251.93,0.01 -37.55,0.13 -40.66,0.41 -43.31,0.95 -4.96,1.01 -9.94,2.94 -14.51,5.53 -4.57,2.59 -8.73,5.84 -12.08,9.53 -2.03,2.23 -3.68,4.37 -5.16,6.73 -1.48,2.37 -2.82,5.04 -4.24,8.34 -1.71,3.97 -2.65,6.93 -3.17,12.4 -0.55,5.84 -0.64,14.48 -0.64,29.68 0,12.04 0.04,18.97 0.21,23.56 0.16,4.35 0.44,6.41 0.93,8.8 0.62,3.06 1.81,6.57 3.32,10.01 1.51,3.43 3.32,6.73 5.21,9.38 4.08,5.74 9.53,10.49 15.8,13.97 6.3,3.49 13.43,5.68 20.84,6.28 3.17,0.25 5.38,0.71 6.94,1.52zm578.81 -151.41c2.34,0.8 5.05,1.91 7.67,3.12 3.39,1.56 6.64,3.3 8.77,4.77 4.06,2.79 7.7,6.14 10.87,9.98 3.16,3.83 5.86,8.16 8.06,12.94 1.25,2.71 2.19,4.79 2.9,6.97 -2.8,-9.12 -7.59,-17.09 -13.95,-23.48 -6.59,-6.61 -14.85,-11.53 -24.32,-14.3zm38.92 40.03c0.39,1.58 0.68,3.31 0.91,5.43 0.63,5.97 0.66,14.73 0.66,31.88 0,17.15 -0.03,25.92 -0.66,31.89 -0.23,2.12 -0.53,3.86 -0.92,5.45 0.32,-1.2 0.61,-2.42 0.86,-3.66 0.52,-2.59 0.81,-4.63 0.97,-9.08 0.16,-4.38 0.19,-11.61 0.19,-24.6 0,-12.98 -0.03,-20.22 -0.19,-24.59 -0.16,-4.45 -0.45,-6.5 -0.97,-9.08 -0.25,-1.23 -0.54,-2.44 -0.85,-3.64zm-0.64 76.84c-0.71,2.19 -1.66,4.28 -2.91,7 -3.61,7.85 -8.62,14.47 -14.91,19.75 -5.49,4.63 -11.94,8.22 -19.27,10.7 8.97,-2.82 16.82,-7.61 23.13,-13.94 6.36,-6.4 11.16,-14.38 13.96,-23.51zm-42.19 38.82c-2.06,0.25 -5.97,0.44 -15.25,0.58 -12.94,0.19 -36.85,0.3 -82.02,0.4 -20.79,0.04 -46.09,0.08 -76.9,0.13 -30.82,0.04 -67.14,0.08 -109.99,0.12 -69.26,0.08 -121.91,0.11 -161.78,0.13 -40.25,0.01 -67.46,0.03 -85.57,0.08 -4.7,0.06 -9.48,0.08 -14.4,0.1 -7,0.03 -14.3,0.06 -22.26,0.21l-0.05 0 0 0.01c-0.02,0 -0.03,0.01 -0.04,0.02 -0.02,0.01 -0.02,0.03 -0.02,0.05 0,0.01 0,0.03 0.02,0.04 0.01,0.01 0.02,0.02 0.04,0.02 0.1,0 0.19,0 0.29,0.01 61.28,-0.28 124.04,-0.34 186.43,-0.39 32.07,-0.03 64.05,-0.06 95.67,-0.12l0 -0.02c139.87,0 210.72,0 243.85,-0.14 35.84,-0.16 38.19,-0.45 40.98,-1.02 0.33,-0.07 0.67,-0.14 1,-0.21z"/>
   <path class="fil6" d="M68.67 113.43l7.13 -0.63c0.33,2.82 1.12,5.13 2.36,6.94 1.24,1.8 3.17,3.26 5.78,4.38 2.6,1.11 5.54,1.67 8.8,1.67 2.9,0 5.45,-0.42 7.67,-1.26 2.22,-0.85 3.86,-2.01 4.94,-3.49 1.09,-1.47 1.64,-3.07 1.64,-4.8 0,-1.74 -0.53,-3.27 -1.57,-4.59 -1.04,-1.3 -2.77,-2.4 -5.17,-3.3 -1.54,-0.57 -4.94,-1.48 -10.22,-2.72 -5.28,-1.24 -8.96,-2.4 -11.08,-3.5 -2.74,-1.41 -4.77,-3.16 -6.1,-5.23 -1.35,-2.07 -2.02,-4.41 -2.02,-6.97 0,-2.85 0.83,-5.49 2.47,-7.94 1.64,-2.47 4.04,-4.34 7.2,-5.61 3.15,-1.28 6.67,-1.92 10.53,-1.92 4.25,0 8,0.67 11.25,2.01 3.25,1.33 5.74,3.3 7.49,5.91 1.75,2.59 2.69,5.54 2.83,8.83l-7.3 0.54c-0.39,-3.53 -1.71,-6.2 -3.97,-8 -2.26,-1.82 -5.59,-2.72 -10,-2.72 -4.6,0 -7.96,0.83 -10.05,2.47 -2.1,1.64 -3.16,3.62 -3.16,5.94 0,2.01 0.76,3.67 2.24,4.97 1.46,1.3 5.27,2.64 11.44,4 6.18,1.36 10.41,2.55 12.71,3.57 3.33,1.5 5.8,3.39 7.38,5.7 1.6,2.29 2.39,4.94 2.39,7.94 0,2.98 -0.87,5.77 -2.62,8.41 -1.75,2.63 -4.25,4.68 -7.52,6.14 -3.28,1.46 -6.95,2.19 -11.05,2.19 -5.18,0 -9.53,-0.74 -13.03,-2.21 -3.51,-1.48 -6.25,-3.69 -8.25,-6.67 -2,-2.96 -3.04,-6.31 -3.14,-10.05zm70.38 11.85l0.96 6.08c-1.97,0.4 -3.75,0.61 -5.3,0.61 -2.55,0 -4.53,-0.39 -5.95,-1.18 -1.4,-0.8 -2.39,-1.83 -2.96,-3.13 -0.58,-1.28 -0.86,-4 -0.86,-8.13l0 -23.4 -5.21 0 0 -5.32 5.21 0 0 -10.04 7.05 -4.13 0 14.17 7.06 0 0 5.32 -7.06 0 0 23.79c0,1.97 0.13,3.23 0.38,3.8 0.24,0.56 0.64,1 1.2,1.34 0.56,0.33 1.37,0.49 2.4,0.49 0.78,0 1.81,-0.09 3.08,-0.27zm34.14 1.06c-2.62,2.17 -5.15,3.7 -7.57,4.6 -2.42,0.9 -5.01,1.34 -7.79,1.34 -4.57,0 -8.08,-1.08 -10.54,-3.25 -2.46,-2.17 -3.69,-4.95 -3.69,-8.32 0,-1.99 0.47,-3.8 1.39,-5.44 0.94,-1.65 2.15,-2.95 3.65,-3.94 1.51,-0.99 3.19,-1.75 5.08,-2.26 1.39,-0.35 3.48,-0.69 6.27,-1.03 5.7,-0.65 9.9,-1.45 12.59,-2.36 0.03,-0.94 0.04,-1.54 0.04,-1.79 0,-2.79 -0.67,-4.76 -2,-5.91 -1.81,-1.55 -4.49,-2.31 -8.05,-2.31 -3.32,0 -5.78,0.57 -7.36,1.7 -1.59,1.14 -2.75,3.15 -3.51,6.04l-6.9 -0.94c0.63,-2.88 1.67,-5.22 3.11,-6.99 1.44,-1.77 3.52,-3.13 6.25,-4.09 2.71,-0.95 5.87,-1.44 9.46,-1.44 3.55,0 6.45,0.41 8.68,1.23 2.22,0.82 3.86,1.84 4.9,3.07 1.05,1.24 1.78,2.81 2.21,4.7 0.23,1.17 0.35,3.29 0.35,6.33l0 9.13c0,6.37 0.14,10.4 0.44,12.11 0.28,1.71 0.87,3.34 1.72,4.9l-7.37 0c-0.71,-1.44 -1.17,-3.14 -1.36,-5.08zm-0.57 -15.26c-2.56,1.02 -6.41,1.88 -11.54,2.58 -2.91,0.41 -4.97,0.86 -6.17,1.37 -1.2,0.51 -2.13,1.25 -2.78,2.22 -0.66,0.98 -0.99,2.06 -0.99,3.26 0,1.81 0.71,3.34 2.14,4.55 1.43,1.21 3.51,1.82 6.25,1.82 2.71,0 5.13,-0.57 7.26,-1.73 2.1,-1.15 3.67,-2.72 4.65,-4.72 0.77,-1.55 1.14,-3.84 1.14,-6.85l0.04 -2.5zm17.89 20.34l0 -40.61 6.34 0 0 6.22c1.61,-2.88 3.11,-4.78 4.48,-5.69 1.38,-0.93 2.9,-1.39 4.53,-1.39 2.38,0 4.8,0.73 7.26,2.18l-2.52 6.35c-1.7,-0.93 -3.42,-1.41 -5.12,-1.41 -1.54,0 -2.92,0.46 -4.13,1.36 -1.22,0.9 -2.09,2.15 -2.61,3.76 -0.79,2.43 -1.18,5.1 -1.18,8.01l0 21.22 -7.05 0zm42.08 -6.14l0.97 6.08c-1.98,0.4 -3.76,0.61 -5.31,0.61 -2.54,0 -4.52,-0.39 -5.94,-1.18 -1.41,-0.8 -2.39,-1.83 -2.97,-3.13 -0.57,-1.28 -0.85,-4 -0.85,-8.13l0 -23.4 -5.21 0 0 -5.32 5.21 0 0 -10.04 7.05 -4.13 0 14.17 7.05 0 0 5.32 -7.05 0 0 23.79c0,1.97 0.12,3.23 0.38,3.8 0.23,0.56 0.64,1 1.2,1.34 0.56,0.33 1.36,0.49 2.4,0.49 0.78,0 1.81,-0.09 3.07,-0.27zm30.03 6.14l0 -56.02 7.81 0 30.11 43.97 0 -43.97 7.3 0 0 56.02 -7.81 0 -30.11 -43.97 0 43.97 -7.3 0zm85.47 -13.14l7.3 0.94c-1.14,4.13 -3.26,7.35 -6.36,9.63 -3.1,2.29 -7.06,3.43 -11.88,3.43 -6.06,0 -10.88,-1.82 -14.43,-5.48 -3.55,-3.63 -5.33,-8.76 -5.33,-15.34 0,-6.81 1.79,-12.1 5.39,-15.86 3.59,-3.77 8.25,-5.65 13.98,-5.65 5.55,0 10.08,1.84 13.59,5.53 3.52,3.69 5.27,8.88 5.27,15.57 0,0.41 -0.01,1.02 -0.04,1.83l-30.97 0c0.26,4.45 1.55,7.86 3.87,10.22 2.31,2.36 5.21,3.55 8.67,3.55 2.58,0 4.78,-0.67 6.6,-2 1.83,-1.32 3.28,-3.45 4.34,-6.37zm-23.08 -11.04l23.16 0c-0.3,-3.41 -1.2,-5.96 -2.66,-7.67 -2.23,-2.65 -5.14,-3.98 -8.7,-3.98 -3.24,0 -5.95,1.06 -8.16,3.17 -2.19,2.11 -3.4,4.94 -3.64,8.48zm46.77 24.18l-12.57 -40.61 7.37 0 6.65 23.44 2.35 8.72c0.09,-0.43 0.81,-3.22 2.15,-8.37l6.58 -23.79 7.23 0 6.27 23.58 2.05 7.73 2.38 -7.83 7.19 -23.48 6.85 0 -13.05 40.61 -7.29 0 -6.6 -24.29 -1.67 -6.95 -8.42 31.24 -7.47 0zm100.42 -21.98l0 -6.58 24.29 0 0 20.77c-3.73,2.89 -7.58,5.08 -11.54,6.54 -3.98,1.46 -8.05,2.19 -12.22,2.19 -5.64,0 -10.75,-1.17 -15.36,-3.53 -4.6,-2.35 -8.08,-5.77 -10.42,-10.22 -2.35,-4.45 -3.53,-9.44 -3.53,-14.93 0,-5.45 1.16,-10.53 3.5,-15.26 2.34,-4.72 5.69,-8.23 10.08,-10.52 4.38,-2.29 9.43,-3.44 15.14,-3.44 4.15,0 7.9,0.65 11.25,1.97 3.36,1.32 5.99,3.14 7.89,5.48 1.9,2.34 3.35,5.41 4.33,9.18l-6.85 1.83c-0.86,-2.85 -1.93,-5.09 -3.2,-6.74 -1.28,-1.62 -3.1,-2.93 -5.48,-3.91 -2.36,-0.98 -4.99,-1.47 -7.89,-1.47 -3.47,0 -6.46,0.52 -9,1.55 -2.52,1.03 -4.55,2.39 -6.11,4.08 -1.55,1.69 -2.75,3.54 -3.62,5.55 -1.45,3.48 -2.18,7.23 -2.18,11.29 0,5 0.88,9.19 2.63,12.57 1.76,3.36 4.33,5.87 7.68,7.5 3.37,1.62 6.93,2.45 10.71,2.45 3.3,0 6.5,-0.63 9.62,-1.87 3.13,-1.25 5.5,-2.57 7.11,-3.98l0 -10.5 -16.83 0zm61.79 16.9c-2.62,2.17 -5.15,3.7 -7.56,4.6 -2.42,0.9 -5.01,1.34 -7.8,1.34 -4.57,0 -8.08,-1.08 -10.53,-3.25 -2.47,-2.17 -3.69,-4.95 -3.69,-8.32 0,-1.99 0.47,-3.8 1.39,-5.44 0.93,-1.65 2.15,-2.95 3.64,-3.94 1.52,-0.99 3.19,-1.75 5.08,-2.26 1.39,-0.35 3.49,-0.69 6.28,-1.03 5.69,-0.65 9.9,-1.45 12.59,-2.36 0.02,-0.94 0.04,-1.54 0.04,-1.79 0,-2.79 -0.67,-4.76 -2.01,-5.91 -1.8,-1.55 -4.48,-2.31 -8.04,-2.31 -3.33,0 -5.78,0.57 -7.36,1.7 -1.59,1.14 -2.76,3.15 -3.52,6.04l-6.89 -0.94c0.62,-2.88 1.66,-5.22 3.1,-6.99 1.44,-1.77 3.53,-3.13 6.25,-4.09 2.71,-0.95 5.88,-1.44 9.46,-1.44 3.56,0 6.45,0.41 8.69,1.23 2.21,0.82 3.86,1.84 4.9,3.07 1.04,1.24 1.78,2.81 2.21,4.7 0.22,1.17 0.34,3.29 0.34,6.33l0 9.13c0,6.37 0.15,10.4 0.44,12.11 0.28,1.71 0.87,3.34 1.72,4.9l-7.37 0c-0.71,-1.44 -1.16,-3.14 -1.36,-5.08zm-0.56 -15.26c-2.57,1.02 -6.42,1.88 -11.55,2.58 -2.91,0.41 -4.97,0.86 -6.17,1.37 -1.2,0.51 -2.12,1.25 -2.78,2.22 -0.66,0.98 -0.99,2.06 -0.99,3.26 0,1.81 0.71,3.34 2.14,4.55 1.43,1.21 3.52,1.82 6.25,1.82 2.71,0 5.13,-0.57 7.26,-1.73 2.11,-1.15 3.67,-2.72 4.66,-4.72 0.77,-1.55 1.14,-3.84 1.14,-6.85l0.04 -2.5zm17.97 20.34l0 -40.61 6.33 0 0 5.74c1.3,-1.98 3.03,-3.58 5.2,-4.79 2.16,-1.21 4.62,-1.81 7.38,-1.81 3.08,0 5.6,0.63 7.57,1.87 1.96,1.25 3.35,2.99 4.15,5.23 3.32,-4.74 7.6,-7.1 12.9,-7.1 4.14,0 7.33,1.11 9.55,3.34 2.22,2.23 3.35,5.66 3.35,10.29l0 27.84 -7.05 0 0 -25.56c0,-2.73 -0.25,-4.72 -0.7,-5.93 -0.45,-1.21 -1.28,-2.18 -2.5,-2.92 -1.2,-0.75 -2.61,-1.11 -4.23,-1.11 -2.94,0 -5.37,0.95 -7.31,2.84 -1.93,1.91 -2.9,4.94 -2.9,9.12l0 23.56 -7.05 0 0 -26.35c0,-3.05 -0.58,-5.35 -1.73,-6.88 -1.15,-1.52 -3.03,-2.29 -5.63,-2.29 -1.98,0 -3.81,0.51 -5.49,1.53 -1.69,1.02 -2.9,2.5 -3.67,4.47 -0.74,1.95 -1.12,4.78 -1.12,8.48l0 21.04 -7.05 0zm95.15 -13.14l7.29 0.94c-1.13,4.13 -3.26,7.35 -6.36,9.63 -3.1,2.29 -7.05,3.43 -11.88,3.43 -6.06,0 -10.87,-1.82 -14.43,-5.48 -3.55,-3.63 -5.33,-8.76 -5.33,-15.34 0,-6.81 1.79,-12.1 5.39,-15.86 3.59,-3.77 8.25,-5.65 13.99,-5.65 5.54,0 10.08,1.84 13.59,5.53 3.51,3.69 5.27,8.88 5.27,15.57 0,0.41 -0.01,1.02 -0.04,1.83l-30.98 0c0.27,4.45 1.55,7.86 3.87,10.22 2.32,2.36 5.21,3.55 8.67,3.55 2.58,0 4.79,-0.67 6.61,-2 1.82,-1.32 3.27,-3.45 4.34,-6.37zm-23.09 -11.04l23.17 0c-0.31,-3.41 -1.21,-5.96 -2.66,-7.67 -2.23,-2.65 -5.15,-3.98 -8.71,-3.98 -3.23,0 -5.95,1.06 -8.15,3.17 -2.19,2.11 -3.41,4.94 -3.65,8.48z"/>
  </g>
 </g>
</svg>
